<?xml version="1.0" encoding="utf-8"?>
<!-- Generator: Adobe Illustrator 15.0.0, SVG Export Plug-In . SVG Version: 6.00 Build 0)  -->
<!DOCTYPE svg PUBLIC "-//W3C//DTD SVG 1.1//EN" "http://www.w3.org/Graphics/SVG/1.1/DTD/svg11.dtd">
<svg version="1.1" id="Ebene_1" xmlns="http://www.w3.org/2000/svg" xmlns:xlink="http://www.w3.org/1999/xlink" x="0px" y="0px"
	 width="841.89px" height="595.28px" viewBox="0 0 841.89 595.28" enable-background="new 0 0 841.89 595.28" xml:space="preserve">
<circle fill="#FFFFFF" stroke="#000000" stroke-width="0.5" stroke-miterlimit="10" cx="465.824" cy="264.276" r="8.651"/>
<circle fill="#FFFFFF" stroke="#000000" stroke-width="0.5" stroke-miterlimit="10" cx="493.73" cy="265.392" r="8.651"/>
<circle fill="#FFFFFF" stroke="#000000" stroke-width="0.5" stroke-miterlimit="10" cx="520.52" cy="273.764" r="8.651"/>
<circle fill="#FFFFFF" stroke="#000000" stroke-width="0.5" stroke-miterlimit="10" cx="540.612" cy="289.392" r="8.651"/>
<path fill="#FFFFFF" stroke="#000000" stroke-width="0.5" stroke-miterlimit="10" d="M560.221,311.393
	c-3.287,2.023-7.596,1-9.614-2.287c-2.025-3.286-1.003-7.59,2.284-9.614c3.286-2.024,7.592-1.001,9.615,2.286
	C564.529,305.063,563.504,309.368,560.221,311.393z"/>
<path fill="#FFFFFF" stroke="#000000" stroke-width="0.5" stroke-miterlimit="10" d="M571.27,331.063
	c-3.283,2.022-7.591,0.999-9.614-2.288c-2.023-3.286-0.998-7.591,2.289-9.615c3.283-2.024,7.589-0.999,9.614,2.287
	C575.582,324.733,574.558,329.038,571.27,331.063z"/>
<circle fill="#FFFFFF" stroke="#000000" stroke-width="0.5" stroke-miterlimit="10" cx="573.195" cy="347.086" r="6.988"/>
<circle fill="#FFFFFF" stroke="#000000" stroke-width="0.5" stroke-miterlimit="10" cx="573.747" cy="366.967" r="6.988"/>
<path fill="#FFFFFF" stroke="#000000" stroke-width="0.5" stroke-miterlimit="10" d="M396.854,307.312
	c3.333,1.95,4.453,6.233,2.502,9.559c-1.948,3.334-6.228,4.454-9.56,2.505c-3.332-1.948-4.453-6.23-2.504-9.561
	C389.241,306.48,393.522,305.362,396.854,307.312z"/>
<path fill="#FFFFFF" stroke="#000000" stroke-width="0.5" stroke-miterlimit="10" d="M411.812,289.427
	c3.328,1.946,4.449,6.228,2.499,9.562c-1.948,3.329-6.23,4.451-9.561,2.5c-3.333-1.949-4.452-6.229-2.503-9.563
	C404.198,288.597,408.479,287.476,411.812,289.427z"/>
<path fill="#FFFFFF" stroke="#000000" stroke-width="0.5" stroke-miterlimit="10" d="M428.579,274.164
	c3.33,1.948,4.45,6.228,2.499,9.56c-1.946,3.332-6.23,4.452-9.563,2.502c-3.329-1.95-4.449-6.231-2.499-9.562
	C420.966,273.333,425.247,272.214,428.579,274.164z"/>
<circle fill="#FFFFFF" stroke="#000000" stroke-width="0.5" stroke-miterlimit="10" cx="442.337" cy="270.36" r="6.989"/>
<circle fill="#FFFFFF" stroke="#000000" stroke-width="0.5" stroke-miterlimit="10" cx="571.309" cy="383.715" r="4.75"/>
<path fill="#FFFFFF" stroke="#000000" stroke-width="0.5" stroke-miterlimit="10" d="M565.418,401.823
	c-2.397-1.06-3.483-3.868-2.422-6.267c1.062-2.397,3.865-3.483,6.266-2.42c2.398,1.06,3.482,3.863,2.423,6.267
	C570.622,401.801,567.816,402.883,565.418,401.823z"/>
<path fill="#FFFFFF" stroke="#000000" stroke-width="0.5" stroke-miterlimit="10" d="M558.609,413.973
	c-2.396-1.062-3.481-3.865-2.42-6.266s3.865-3.483,6.266-2.422c2.398,1.062,3.482,3.867,2.423,6.266
	C563.815,413.949,561.01,415.035,558.609,413.973z"/>
<path fill="#FFFFFF" stroke="#000000" stroke-width="0.5" stroke-miterlimit="10" d="M550.479,425.286
	c-2.4-1.06-3.483-3.865-2.424-6.266c1.063-2.398,3.867-3.482,6.268-2.421c2.4,1.063,3.481,3.866,2.423,6.267
	C555.682,425.264,552.878,426.35,550.479,425.286z"/>
<path fill="#FFFFFF" stroke="#000000" stroke-width="0.5" stroke-miterlimit="10" d="M381.397,366.443
	c2.623,0.113,4.657,2.332,4.542,4.949c-0.114,2.622-2.332,4.656-4.952,4.539c-2.62-0.114-4.653-2.329-4.538-4.949
	C376.561,368.361,378.78,366.33,381.397,366.443z"/>
<circle fill="#FFFFFF" stroke="#000000" stroke-width="0.5" stroke-miterlimit="10" cx="379.873" cy="356.924" r="4.749"/>
<circle fill="#FFFFFF" stroke="#000000" stroke-width="0.5" stroke-miterlimit="10" cx="381.784" cy="343.127" r="4.75"/>
<circle fill="#FFFFFF" stroke="#000000" stroke-width="0.5" stroke-miterlimit="10" cx="385.233" cy="329.629" r="4.75"/>
<circle fill="#FFFFFF" stroke="#000000" stroke-width="0.5" stroke-miterlimit="10" cx="517.454" cy="295.331" r="7.041"/>
<circle fill="#FFFFFF" stroke="#000000" stroke-width="0.5" stroke-miterlimit="10" cx="534.686" cy="310.151" r="7.04"/>
<circle fill="#FFFFFF" stroke="#000000" stroke-width="0.5" stroke-miterlimit="10" cx="547.537" cy="329.038" r="7.04"/>
<circle fill="#FFFFFF" stroke="#000000" stroke-width="0.5" stroke-miterlimit="10" cx="552.447" cy="349.163" r="7.04"/>
<path fill="#FFFFFF" stroke="#000000" stroke-width="0.5" stroke-miterlimit="10" d="M553.826,373.105
	c-3.119-0.37-5.348-3.2-4.975-6.315c0.372-3.12,3.198-5.349,6.32-4.978c3.117,0.37,5.346,3.2,4.975,6.32
	C559.776,371.253,556.946,373.48,553.826,373.105z"/>
<path fill="#FFFFFF" stroke="#000000" stroke-width="0.5" stroke-miterlimit="10" d="M550.929,391.24
	c-3.117-0.37-5.348-3.2-4.975-6.32c0.37-3.12,3.2-5.348,6.317-4.975c3.122,0.37,5.349,3.2,4.978,6.32
	C556.879,389.383,554.049,391.611,550.929,391.24z"/>
<path fill="#FFFFFF" stroke="#000000" stroke-width="0.5" stroke-miterlimit="10" d="M543.379,408.08
	c-3.117-0.375-5.344-3.2-4.973-6.322c0.37-3.118,3.2-5.346,6.318-4.974c3.121,0.371,5.35,3.201,4.977,6.32
	C549.331,406.223,546.499,408.45,543.379,408.08z"/>
<path fill="#FFFFFF" stroke="#000000" stroke-width="0.5" stroke-miterlimit="10" d="M533.677,421.034
	c-3.119-0.368-5.348-3.198-4.973-6.317c0.371-3.118,3.2-5.346,6.318-4.974c3.122,0.371,5.348,3.201,4.979,6.32
	C539.627,419.182,536.797,421.409,533.677,421.034z"/>
<circle fill="#FFFFFF" stroke="#000000" stroke-width="0.5" stroke-miterlimit="10" cx="446.408" cy="289.963" r="5.688"/>
<path fill="#FFFFFF" stroke="#000000" stroke-width="0.5" stroke-miterlimit="10" d="M470.292,284.059
	c1.137,2.924-0.312,6.222-3.242,7.36c-2.926,1.138-6.223-0.312-7.362-3.239c-1.139-2.929,0.311-6.223,3.238-7.364
	C465.855,279.679,469.151,281.128,470.292,284.059z"/>
<path fill="#FFFFFF" stroke="#000000" stroke-width="0.5" stroke-miterlimit="10" d="M488.702,282.802
	c1.139,2.928-0.312,6.222-3.239,7.36c-2.926,1.142-6.226-0.311-7.365-3.24c-1.137-2.927,0.314-6.222,3.24-7.359
	C484.268,278.423,487.564,279.874,488.702,282.802z"/>
<path fill="#FFFFFF" stroke="#000000" stroke-width="0.5" stroke-miterlimit="10" d="M504.7,285.274
	c1.139,2.927-0.312,6.225-3.239,7.361c-2.926,1.138-6.225-0.313-7.365-3.24c-1.138-2.93,0.314-6.224,3.242-7.365
	C500.266,280.896,503.561,282.346,504.7,285.274z"/>
<path fill="#FFFFFF" stroke="#000000" stroke-width="0.5" stroke-miterlimit="10" d="M520.906,426.638
	c-0.992-1.893-0.267-4.231,1.624-5.222c1.888-0.994,4.225-0.268,5.219,1.622c0.994,1.891,0.269,4.228-1.622,5.222
	C524.239,429.254,521.9,428.523,520.906,426.638z"/>
<path fill="#FFFFFF" stroke="#000000" stroke-width="0.5" stroke-miterlimit="10" d="M511.415,433.405
	c-0.994-1.889-0.266-4.226,1.627-5.22c1.888-0.994,4.225-0.266,5.217,1.624c0.992,1.889,0.269,4.226-1.624,5.22
	C514.747,436.021,512.409,435.295,511.415,433.405z"/>
<circle fill="#FFFFFF" stroke="#000000" stroke-width="0.5" stroke-miterlimit="10" cx="504.353" cy="435.913" r="3.865"/>
<circle fill="#FFFFFF" stroke="#000000" stroke-width="0.5" stroke-miterlimit="10" cx="493.446" cy="439.018" r="3.866"/>
<circle fill="#FFFFFF" stroke="#000000" stroke-width="0.5" stroke-miterlimit="10" cx="409.423" cy="320.715" r="3.865"/>
<path fill="#FFFFFF" stroke="#000000" stroke-width="0.5" stroke-miterlimit="10" d="M418.325,308.032
	c1.614,1.394,1.789,3.838,0.389,5.452c-1.396,1.613-3.838,1.789-5.453,0.387c-1.613-1.395-1.787-3.836-0.39-5.451
	C414.269,306.808,416.711,306.632,418.325,308.032z"/>
<path fill="#FFFFFF" stroke="#000000" stroke-width="0.5" stroke-miterlimit="10" d="M426.521,300.199
	c1.61,1.398,1.787,3.838,0.388,5.453c-1.396,1.613-3.839,1.789-5.452,0.389c-1.614-1.396-1.789-3.839-0.391-5.453
	C422.462,298.976,424.906,298.801,426.521,300.199z"/>
<circle fill="#FFFFFF" stroke="#000000" stroke-width="0.5" stroke-miterlimit="10" cx="433.015" cy="296.255" r="3.866"/>
<circle fill="#FFFFFF" stroke="#000000" stroke-width="0.5" stroke-miterlimit="10" cx="526.313" cy="326.992" r="5.726"/>
<path fill="#FFFFFF" stroke="#000000" stroke-width="0.5" stroke-miterlimit="10" d="M536.811,348.804
	c-2.807,1.457-6.262,0.363-7.721-2.441c-1.458-2.807-0.364-6.263,2.439-7.721c2.809-1.456,6.264-0.364,7.723,2.44
	C540.708,343.888,539.616,347.346,536.811,348.804z"/>
<path fill="#FFFFFF" stroke="#000000" stroke-width="0.5" stroke-miterlimit="10" d="M540.067,367.091
	c-2.806,1.458-6.262,0.366-7.72-2.439c-1.459-2.807-0.364-6.264,2.441-7.723c2.804-1.456,6.264-0.364,7.72,2.442
	C543.968,362.177,542.871,365.632,540.067,367.091z"/>
<path fill="#FFFFFF" stroke="#000000" stroke-width="0.5" stroke-miterlimit="10" d="M537.02,383.658
	c-2.806,1.458-6.262,0.366-7.72-2.44c-1.459-2.806-0.364-6.264,2.441-7.72c2.806-1.461,6.264-0.366,7.72,2.441
	C540.92,378.743,539.827,382.201,537.02,383.658z"/>
<path fill="#FFFFFF" stroke="#000000" stroke-width="0.5" stroke-miterlimit="10" d="M527.441,396.807
	c-2.19-1.313-2.903-4.153-1.589-6.343c1.313-2.193,4.151-2.903,6.345-1.591c2.188,1.308,2.901,4.153,1.591,6.342
	C532.474,397.408,529.633,398.119,527.441,396.807z"/>
<path fill="#FFFFFF" stroke="#000000" stroke-width="0.5" stroke-miterlimit="10" d="M519.262,409.297
	c-2.188-1.311-2.904-4.149-1.589-6.345c1.313-2.188,4.15-2.901,6.342-1.589c2.193,1.314,2.904,4.152,1.594,6.346
	C524.296,409.898,521.455,410.611,519.262,409.297z"/>
<circle fill="#FFFFFF" stroke="#000000" stroke-width="0.5" stroke-miterlimit="10" cx="510.438" cy="415.317" r="4.625"/>
<path fill="#FFFFFF" stroke="#000000" stroke-width="0.5" stroke-miterlimit="10" d="M496.551,425.674
	c-2.188-1.311-2.903-4.15-1.587-6.342c1.311-2.191,4.153-2.904,6.345-1.592c2.188,1.314,2.901,4.153,1.589,6.347
	C501.585,426.278,498.744,426.988,496.551,425.674z"/>
<circle fill="#FFFFFF" stroke="#000000" stroke-width="0.5" stroke-miterlimit="10" cx="475.373" cy="299.385" r="4.626"/>
<circle fill="#FFFFFF" stroke="#000000" stroke-width="0.5" stroke-miterlimit="10" cx="490.44" cy="302.711" r="4.626"/>
<circle fill="#FFFFFF" stroke="#000000" stroke-width="0.5" stroke-miterlimit="10" cx="504.521" cy="307.901" r="4.625"/>
<path fill="#FFFFFF" stroke="#000000" stroke-width="0.5" stroke-miterlimit="10" d="M520.19,315.29
	c-0.126,2.551-2.3,4.515-4.851,4.384c-2.551-0.129-4.516-2.3-4.387-4.853c0.129-2.554,2.298-4.516,4.851-4.387
	C518.357,310.564,520.319,312.736,520.19,315.29z"/>
<path fill="#FFFFFF" stroke="#000000" stroke-width="0.5" stroke-miterlimit="10" d="M485.214,425.582
	c-0.108-1.73,1.208-3.227,2.939-3.333c1.735-0.109,3.227,1.208,3.335,2.941c0.109,1.73-1.21,3.224-2.938,3.333
	C486.814,428.635,485.323,427.313,485.214,425.582z"/>
<path fill="#FFFFFF" stroke="#000000" stroke-width="0.5" stroke-miterlimit="10" d="M475.919,427.451
	c-0.11-1.731,1.208-3.225,2.942-3.334c1.73-0.108,3.225,1.208,3.331,2.941c0.109,1.733-1.206,3.225-2.939,3.336
	C477.521,430.501,476.028,429.184,475.919,427.451z"/>
<circle fill="#FFFFFF" stroke="#000000" stroke-width="0.5" stroke-miterlimit="10" cx="469.844" cy="426.965" r="3.143"/>
<circle fill="#FFFFFF" stroke="#000000" stroke-width="0.5" stroke-miterlimit="10" cx="460.718" cy="425.642" r="3.144"/>
<circle fill="#FFFFFF" stroke="#000000" stroke-width="0.5" stroke-miterlimit="10" cx="437.7" cy="309.908" r="3.144"/>
<circle fill="#FFFFFF" stroke="#000000" stroke-width="0.5" stroke-miterlimit="10" cx="445.675" cy="304.782" r="3.143"/>
<circle fill="#FFFFFF" stroke="#000000" stroke-width="0.5" stroke-miterlimit="10" cx="454.36" cy="301.696" r="3.144"/>
<circle fill="#FFFFFF" stroke="#000000" stroke-width="0.5" stroke-miterlimit="10" cx="463.34" cy="299.602" r="3.143"/>
<path fill="#FFFFFF" stroke="#000000" stroke-width="0.5" stroke-miterlimit="10" d="M522.939,371.366
	c-2.524-0.491-4.177-2.935-3.688-5.462c0.49-2.526,2.935-4.179,5.464-3.69c2.524,0.49,4.175,2.935,3.687,5.461
	C527.913,370.202,525.469,371.854,522.939,371.366z"/>
<path fill="#FFFFFF" stroke="#000000" stroke-width="0.5" stroke-miterlimit="10" d="M519.495,386.008
	c-2.529-0.492-4.182-2.935-3.693-5.459c0.491-2.529,2.939-4.182,5.464-3.691c2.526,0.486,4.177,2.933,3.688,5.462
	C524.466,384.844,522.02,386.496,519.495,386.008z"/>
<path fill="#FFFFFF" stroke="#000000" stroke-width="0.5" stroke-miterlimit="10" d="M512.322,399.32
	c-2.524-0.493-4.177-2.937-3.687-5.464c0.488-2.526,2.933-4.18,5.459-3.688c2.527,0.488,4.18,2.935,3.691,5.459
	C517.295,398.156,514.852,399.807,512.322,399.32z"/>
<circle fill="#FFFFFF" stroke="#000000" stroke-width="0.5" stroke-miterlimit="10" cx="502.888" cy="403.768" r="4.659"/>
<circle fill="#FFFFFF" stroke="#000000" stroke-width="0.5" stroke-miterlimit="10" cx="492.768" cy="410.554" r="3.763"/>
<path fill="#FFFFFF" stroke="#000000" stroke-width="0.5" stroke-miterlimit="10" d="M477.715,415.715
	c-0.736-1.944,0.247-4.118,2.19-4.853c1.947-0.733,4.118,0.248,4.851,2.192c0.735,1.945-0.246,4.119-2.192,4.854
	C480.618,418.641,478.447,417.66,477.715,415.715z"/>
<path fill="#FFFFFF" stroke="#000000" stroke-width="0.5" stroke-miterlimit="10" d="M465.521,416.417
	c-0.732-1.944,0.249-4.116,2.194-4.851c1.945-0.732,4.116,0.25,4.849,2.195c0.736,1.944-0.247,4.118-2.192,4.853
	C468.425,419.347,466.254,418.364,465.521,416.417z"/>
<path fill="#FFFFFF" stroke="#000000" stroke-width="0.5" stroke-miterlimit="10" d="M454.949,414.673
	c-0.732-1.944,0.248-4.116,2.194-4.849c1.945-0.734,4.116,0.248,4.849,2.195c0.735,1.947-0.248,4.114-2.192,4.851
	C457.855,417.601,455.684,416.62,454.949,414.673z"/>
<circle fill="#FFFFFF" stroke="#000000" stroke-width="0.5" stroke-miterlimit="10" cx="505.302" cy="323.427" r="3.765"/>
<circle fill="#FFFFFF" stroke="#000000" stroke-width="0.5" stroke-miterlimit="10" cx="513.227" cy="333.167" r="3.764"/>
<circle fill="#FFFFFF" stroke="#000000" stroke-width="0.5" stroke-miterlimit="10" cx="519.584" cy="343.596" r="3.765"/>
<circle fill="#FFFFFF" stroke="#000000" stroke-width="0.5" stroke-miterlimit="10" cx="523.013" cy="353.747" r="3.765"/>
<circle fill="#FFFFFF" stroke="#000000" stroke-width="0.5" stroke-miterlimit="10" cx="449.865" cy="410.343" r="2.559"/>
<circle fill="#FFFFFF" stroke="#000000" stroke-width="0.5" stroke-miterlimit="10" cx="442.993" cy="406.833" r="2.558"/>
<path fill="#FFFFFF" stroke="#000000" stroke-width="0.5" stroke-miterlimit="10" d="M435.167,400.53
	c0.805-1.162,2.399-1.445,3.559-0.639c1.161,0.807,1.446,2.402,0.639,3.563c-0.806,1.155-2.399,1.442-3.561,0.636
	C434.646,403.283,434.356,401.688,435.167,400.53z"/>
<path fill="#FFFFFF" stroke="#000000" stroke-width="0.5" stroke-miterlimit="10" d="M430.015,395.071
	c0.807-1.16,2.401-1.446,3.56-0.642c1.161,0.81,1.449,2.402,0.642,3.563c-0.81,1.162-2.4,1.448-3.563,0.639
	C429.492,397.824,429.208,396.229,430.015,395.071z"/>
<circle fill="#FFFFFF" stroke="#000000" stroke-width="0.5" stroke-miterlimit="10" cx="475.956" cy="311.088" r="2.558"/>
<path fill="#FFFFFF" stroke="#000000" stroke-width="0.5" stroke-miterlimit="10" d="M486.121,312.448
	c-0.327,1.371-1.709,2.222-3.083,1.891c-1.373-0.327-2.222-1.708-1.893-3.085c0.327-1.371,1.71-2.218,3.083-1.891
	C485.603,309.692,486.45,311.073,486.121,312.448z"/>
<path fill="#FFFFFF" stroke="#000000" stroke-width="0.5" stroke-miterlimit="10" d="M493.222,314.871
	c-0.329,1.371-1.709,2.22-3.083,1.892c-1.375-0.329-2.221-1.708-1.892-3.083c0.324-1.375,1.709-2.223,3.082-1.895
	C492.701,312.114,493.551,313.495,493.222,314.871z"/>
<circle fill="#FFFFFF" stroke="#000000" stroke-width="0.5" stroke-miterlimit="10" cx="497.519" cy="317.481" r="2.56"/>
<circle fill="#FFFFFF" stroke="#000000" stroke-width="0.5" stroke-miterlimit="10" cx="508.905" cy="373.339" r="3.894"/>
<path fill="#FFFFFF" stroke="#000000" stroke-width="0.5" stroke-miterlimit="10" d="M501.346,387.968
	c-1.94-0.931-2.763-3.255-1.834-5.197c0.929-1.938,3.257-2.758,5.197-1.829c1.938,0.929,2.761,3.255,1.832,5.193
	C505.612,388.075,503.283,388.895,501.346,387.968z"/>
<path fill="#FFFFFF" stroke="#000000" stroke-width="0.5" stroke-miterlimit="10" d="M492.738,397.219
	c-1.94-0.929-2.761-3.253-1.832-5.193s3.255-2.761,5.193-1.831c1.942,0.929,2.763,3.252,1.834,5.192
	C497.005,397.33,494.679,398.147,492.738,397.219z"/>
<path fill="#FFFFFF" stroke="#000000" stroke-width="0.5" stroke-miterlimit="10" d="M482.484,402.34
	c-1.936-0.927-2.758-3.255-1.829-5.195s3.255-2.761,5.195-1.832s2.761,3.256,1.831,5.195
	C486.751,402.448,484.427,403.269,482.484,402.34z"/>
<path fill="#FFFFFF" stroke="#000000" stroke-width="0.5" stroke-miterlimit="10" d="M471.423,402.512
	c-0.184-1.727,1.07-3.276,2.797-3.458c1.729-0.183,3.276,1.068,3.461,2.798c0.185,1.725-1.069,3.276-2.797,3.46
	C473.154,405.494,471.605,404.24,471.423,402.512z"/>
<circle fill="#FFFFFF" stroke="#000000" stroke-width="0.5" stroke-miterlimit="10" cx="464.417" cy="402.847" r="3.147"/>
<circle fill="#FFFFFF" stroke="#000000" stroke-width="0.5" stroke-miterlimit="10" cx="454.406" cy="400.843" r="3.146"/>
<circle fill="#FFFFFF" stroke="#000000" stroke-width="0.5" stroke-miterlimit="10" cx="446.226" cy="397.203" r="3.146"/>
<circle fill="#FFFFFF" stroke="#000000" stroke-width="0.5" stroke-miterlimit="10" cx="503.072" cy="334.361" r="3.146"/>
<path fill="#FFFFFF" stroke="#000000" stroke-width="0.5" stroke-miterlimit="10" d="M509.189,346.519
	c-1.437,0.973-3.395,0.595-4.369-0.845c-0.973-1.438-0.595-3.395,0.844-4.368c1.439-0.976,3.395-0.597,4.369,0.842
	C511.006,343.586,510.631,345.544,509.189,346.519z"/>
<path fill="#FFFFFF" stroke="#000000" stroke-width="0.5" stroke-miterlimit="10" d="M512.128,356.292
	c-1.438,0.975-3.395,0.598-4.366-0.842c-0.977-1.438-0.598-3.396,0.842-4.37c1.438-0.973,3.395-0.595,4.368,0.843
	C513.944,353.362,513.569,355.32,512.128,356.292z"/>
<path fill="#FFFFFF" stroke="#000000" stroke-width="0.5" stroke-miterlimit="10" d="M512.761,365.227
	c-1.439,0.973-3.395,0.598-4.369-0.844c-0.973-1.441-0.595-3.395,0.844-4.369s3.396-0.595,4.369,0.844
	C514.577,362.294,514.199,364.252,512.761,365.227z"/>
<path fill="#FFFFFF" stroke="#000000" stroke-width="0.5" stroke-miterlimit="10" d="M438.507,391.334
	c0.898-0.77,2.25-0.665,3.016,0.233c0.77,0.898,0.665,2.245-0.232,3.016c-0.898,0.765-2.249,0.662-3.014-0.233
	C437.507,393.451,437.612,392.1,438.507,391.334z"/>
<circle fill="#FFFFFF" stroke="#000000" stroke-width="0.5" stroke-miterlimit="10" cx="435.082" cy="388.67" r="2.137"/>
<circle fill="#FFFFFF" stroke="#000000" stroke-width="0.5" stroke-miterlimit="10" cx="431.47" cy="383.544" r="2.14"/>
<path fill="#FFFFFF" stroke="#000000" stroke-width="0.5" stroke-miterlimit="10" d="M427.065,376.42
	c0.899-0.768,2.25-0.663,3.017,0.232c0.768,0.898,0.662,2.248-0.234,3.016c-0.898,0.768-2.249,0.663-3.014-0.233
	C426.063,378.536,426.17,377.187,427.065,376.42z"/>
<circle fill="#FFFFFF" stroke="#000000" stroke-width="0.5" stroke-miterlimit="10" cx="481.94" cy="318.191" r="2.138"/>
<circle fill="#FFFFFF" stroke="#000000" stroke-width="0.5" stroke-miterlimit="10" cx="487.989" cy="320.428" r="2.138"/>
<circle fill="#FFFFFF" stroke="#000000" stroke-width="0.5" stroke-miterlimit="10" cx="493.221" cy="323.886" r="2.139"/>
<circle fill="#FFFFFF" stroke="#000000" stroke-width="0.5" stroke-miterlimit="10" cx="498.03" cy="327.911" r="2.138"/>
<path fill="#FFFFFF" stroke="#000000" stroke-width="0.5" stroke-miterlimit="10" d="M483.409,389.657
	c-0.768-1.574-0.113-3.471,1.458-4.238c1.574-0.765,3.471-0.113,4.241,1.459c0.767,1.574,0.113,3.473-1.461,4.24
	S484.177,391.231,483.409,389.657z"/>
<circle fill="#FFFFFF" stroke="#000000" stroke-width="0.5" stroke-miterlimit="10" cx="476.89" cy="392.385" r="3.169"/>
<path fill="#FFFFFF" stroke="#000000" stroke-width="0.5" stroke-miterlimit="10" d="M463.874,395.321
	c-0.768-1.569-0.115-3.471,1.46-4.238c1.573-0.767,3.47-0.113,4.237,1.461c0.769,1.572,0.114,3.469-1.458,4.236
	C466.54,397.55,464.642,396.896,463.874,395.321z"/>
<path fill="#FFFFFF" stroke="#000000" stroke-width="0.5" stroke-miterlimit="10" d="M454.747,393.405
	c-0.768-1.572-0.115-3.471,1.458-4.238c1.575-0.77,3.473-0.115,4.24,1.459c0.768,1.571,0.112,3.471-1.46,4.238
	C457.413,395.629,455.515,394.978,454.747,393.405z"/>
<path fill="#FFFFFF" stroke="#000000" stroke-width="0.5" stroke-miterlimit="10" d="M447.605,387.922
	c0.757-1.196,2.338-1.552,3.531-0.793c1.195,0.756,1.549,2.339,0.793,3.531c-0.758,1.197-2.34,1.553-3.534,0.794
	C447.203,390.695,446.847,389.117,447.605,387.922z"/>
<circle fill="#FFFFFF" stroke="#000000" stroke-width="0.5" stroke-miterlimit="10" cx="442.967" cy="384.59" r="2.56"/>
<circle fill="#FFFFFF" stroke="#000000" stroke-width="0.5" stroke-miterlimit="10" cx="437.597" cy="378.252" r="2.56"/>
<circle fill="#FFFFFF" stroke="#000000" stroke-width="0.5" stroke-miterlimit="10" cx="434.221" cy="371.793" r="2.56"/>
<path fill="#FFFFFF" stroke="#000000" stroke-width="0.5" stroke-miterlimit="10" d="M502.054,363.016
	c-1.413-0.106-2.468-1.338-2.358-2.747c0.108-1.408,1.334-2.463,2.744-2.358c1.411,0.106,2.468,1.336,2.361,2.747
	C504.694,362.065,503.465,363.123,502.054,363.016z"/>
<path fill="#FFFFFF" stroke="#000000" stroke-width="0.5" stroke-miterlimit="10" d="M500.005,371.31
	c-1.411-0.109-2.469-1.339-2.361-2.747c0.106-1.411,1.336-2.468,2.747-2.361c1.41,0.106,2.466,1.336,2.361,2.745
	C502.643,370.358,501.413,371.414,500.005,371.31z"/>
<path fill="#FFFFFF" stroke="#000000" stroke-width="0.5" stroke-miterlimit="10" d="M496.935,379.027
	c-1.412-0.104-2.468-1.335-2.358-2.743c0.104-1.41,1.334-2.468,2.747-2.363c1.408,0.109,2.466,1.339,2.358,2.747
	C499.573,378.081,498.346,379.136,496.935,379.027z"/>
<circle fill="#FFFFFF" stroke="#000000" stroke-width="0.5" stroke-miterlimit="10" cx="493.014" cy="382.493" r="2.562"/>
<path fill="#FFFFFF" stroke="#000000" stroke-width="0.5" stroke-miterlimit="10" d="M432.268,364.147
	c0.96-0.035,1.77,0.717,1.806,1.672c0.034,0.964-0.716,1.771-1.675,1.808c-0.96,0.035-1.77-0.713-1.806-1.675
	C430.558,364.991,431.308,364.185,432.268,364.147z"/>
<circle fill="#FFFFFF" stroke="#000000" stroke-width="0.5" stroke-miterlimit="10" cx="431.429" cy="360.718" r="1.741"/>
<circle fill="#FFFFFF" stroke="#000000" stroke-width="0.5" stroke-miterlimit="10" cx="431.717" cy="355.622" r="1.74"/>
<path fill="#FFFFFF" stroke="#000000" stroke-width="0.5" stroke-miterlimit="10" d="M432.514,348.852
	c0.959-0.037,1.766,0.715,1.804,1.673c0.032,0.962-0.716,1.77-1.676,1.806c-0.96,0.034-1.768-0.713-1.804-1.676
	C430.802,349.694,431.551,348.888,432.514,348.852z"/>
<circle fill="#FFFFFF" stroke="#000000" stroke-width="0.5" stroke-miterlimit="10" cx="496.949" cy="339.466" r="1.74"/>
<path fill="#FFFFFF" stroke="#000000" stroke-width="0.5" stroke-miterlimit="10" d="M500.368,345.546
	c-0.881,0.384-1.907-0.021-2.289-0.903c-0.386-0.879,0.02-1.904,0.903-2.287c0.878-0.384,1.905,0.02,2.289,0.9
	C501.652,344.138,501.252,345.162,500.368,345.546z"/>
<circle fill="#FFFFFF" stroke="#000000" stroke-width="0.5" stroke-miterlimit="10" cx="501.262" cy="348.8" r="1.74"/>
<path fill="#FFFFFF" stroke="#000000" stroke-width="0.5" stroke-miterlimit="10" d="M502.991,355.396
	c-0.885,0.381-1.91-0.02-2.294-0.903c-0.381-0.878,0.022-1.905,0.905-2.289c0.881-0.384,1.905,0.02,2.289,0.9
	C504.273,353.985,503.872,355.01,502.991,355.396z"/>
<circle fill="#FFFFFF" stroke="#000000" stroke-width="0.5" stroke-miterlimit="10" cx="471.679" cy="385.711" r="2.578"/>
<path fill="#FFFFFF" stroke="#000000" stroke-width="0.5" stroke-miterlimit="10" d="M460.782,385.733
	c-0.048-1.422,1.068-2.612,2.489-2.66c1.424-0.043,2.615,1.07,2.663,2.492c0.045,1.424-1.07,2.614-2.493,2.662
	C462.021,388.273,460.828,387.159,460.782,385.733z"/>
<circle fill="#FFFFFF" stroke="#000000" stroke-width="0.5" stroke-miterlimit="10" cx="455.298" cy="383.419" r="2.578"/>
<circle fill="#FFFFFF" stroke="#000000" stroke-width="0.5" stroke-miterlimit="10" cx="449.164" cy="378.961" r="2.578"/>
<circle fill="#FFFFFF" stroke="#000000" stroke-width="0.5" stroke-miterlimit="10" cx="444.258" cy="374.336" r="2.083"/>
<circle fill="#FFFFFF" stroke="#000000" stroke-width="0.5" stroke-miterlimit="10" cx="440.777" cy="368.586" r="2.084"/>
<path fill="#FFFFFF" stroke="#000000" stroke-width="0.5" stroke-miterlimit="10" d="M437.75,360.36
	c0.958-0.632,2.25-0.37,2.884,0.589c0.635,0.955,0.372,2.25-0.587,2.884c-0.957,0.635-2.251,0.373-2.887-0.586
	C436.526,362.288,436.789,360.995,437.75,360.36z"/>
<path fill="#FFFFFF" stroke="#000000" stroke-width="0.5" stroke-miterlimit="10" d="M437.393,354.443
	c0.955-0.632,2.251-0.37,2.884,0.589c0.635,0.959,0.371,2.252-0.586,2.887c-0.962,0.634-2.251,0.37-2.888-0.589
	C436.168,356.371,436.432,355.08,437.393,354.443z"/>
<path fill="#FFFFFF" stroke="#000000" stroke-width="0.5" stroke-miterlimit="10" d="M491.798,372.223
	c-1.011-0.547-1.386-1.812-0.837-2.821c0.55-1.014,1.812-1.387,2.823-0.839c1.012,0.549,1.385,1.813,0.838,2.821
	C494.074,372.397,492.808,372.772,491.798,372.223z"/>
<circle fill="#FFFFFF" stroke="#000000" stroke-width="0.5" stroke-miterlimit="10" cx="488.513" cy="375.866" r="2.083"/>
<circle fill="#FFFFFF" stroke="#000000" stroke-width="0.5" stroke-miterlimit="10" cx="483.668" cy="380.573" r="2.081"/>
<circle fill="#FFFFFF" stroke="#000000" stroke-width="0.5" stroke-miterlimit="10" cx="478.614" cy="383.67" r="2.082"/>
<circle fill="#FFFFFF" stroke="#000000" stroke-width="0.5" stroke-miterlimit="10" cx="439.102" cy="351.17" r="1.416"/>
<circle fill="#FFFFFF" stroke="#000000" stroke-width="0.5" stroke-miterlimit="10" cx="440.15" cy="347.033" r="1.415"/>
<circle fill="#FFFFFF" stroke="#000000" stroke-width="0.5" stroke-miterlimit="10" cx="442.059" cy="343.349" r="1.416"/>
<circle fill="#FFFFFF" stroke="#000000" stroke-width="0.5" stroke-miterlimit="10" cx="444.37" cy="339.9" r="1.416"/>
<path fill="#FFFFFF" stroke="#000000" stroke-width="0.5" stroke-miterlimit="10" d="M495.825,354.465
	c-0.78-0.011-1.411-0.649-1.402-1.435c0.009-0.78,0.65-1.406,1.431-1.397c0.785,0.009,1.408,0.65,1.399,1.433
	C497.246,353.846,496.604,354.472,495.825,354.465z"/>
<circle fill="#FFFFFF" stroke="#000000" stroke-width="0.5" stroke-miterlimit="10" cx="496.373" cy="357.284" r="1.415"/>
<path fill="#FFFFFF" stroke="#000000" stroke-width="0.5" stroke-miterlimit="10" d="M495.923,362.826
	c-0.782-0.009-1.408-0.647-1.399-1.433c0.009-0.778,0.649-1.406,1.431-1.399c0.78,0.009,1.408,0.649,1.399,1.433
	C497.345,362.207,496.704,362.833,495.923,362.826z"/>
<circle fill="#FFFFFF" stroke="#000000" stroke-width="0.5" stroke-miterlimit="10" cx="495.042" cy="365.464" r="1.415"/>
<circle fill="#FFFFFF" stroke="#000000" stroke-width="0.5" stroke-miterlimit="10" cx="456.001" cy="376.967" r="2.098"/>
<circle fill="#FFFFFF" stroke="#000000" stroke-width="0.5" stroke-miterlimit="10" cx="450.726" cy="372.72" r="2.098"/>
<path fill="#FFFFFF" stroke="#000000" stroke-width="0.5" stroke-miterlimit="10" d="M445.028,365.973
	c0.691-0.93,2.005-1.125,2.936-0.435c0.93,0.689,1.127,2.004,0.435,2.933c-0.687,0.929-2.001,1.127-2.932,0.436
	C444.534,368.218,444.339,366.903,445.028,365.973z"/>
<path fill="#FFFFFF" stroke="#000000" stroke-width="0.5" stroke-miterlimit="10" d="M443.37,360.024
	c0.688-0.929,2.004-1.125,2.935-0.432c0.931,0.687,1.127,2.002,0.438,2.931c-0.689,0.933-2.003,1.127-2.934,0.438
	C442.876,362.272,442.682,360.958,443.37,360.024z"/>
<circle fill="#FFFFFF" stroke="#000000" stroke-width="0.5" stroke-miterlimit="10" cx="444.267" cy="355.848" r="1.694"/>
<path fill="#FFFFFF" stroke="#000000" stroke-width="0.5" stroke-miterlimit="10" d="M445.098,348.733
	c0.934,0.076,1.624,0.899,1.544,1.831c-0.081,0.935-0.901,1.625-1.834,1.543c-0.932-0.08-1.624-0.899-1.543-1.832
	C443.344,349.342,444.166,348.65,445.098,348.733z"/>
<path fill="#FFFFFF" stroke="#000000" stroke-width="0.5" stroke-miterlimit="10" d="M447.184,343.643
	c0.93,0.081,1.623,0.901,1.542,1.835c-0.079,0.932-0.902,1.623-1.833,1.541c-0.935-0.078-1.625-0.899-1.546-1.832
	C445.428,344.253,446.249,343.563,447.184,343.643z"/>
<path fill="#FFFFFF" stroke="#000000" stroke-width="0.5" stroke-miterlimit="10" d="M449.945,339.691
	c0.933,0.078,1.623,0.898,1.543,1.831c-0.08,0.935-0.901,1.624-1.834,1.543c-0.933-0.08-1.623-0.899-1.543-1.834
	C448.191,340.301,449.012,339.609,449.945,339.691z"/>
<circle fill="#FFFFFF" stroke="#000000" stroke-width="0.5" stroke-miterlimit="10" cx="477.211" cy="377.873" r="1.694"/>
<circle fill="#FFFFFF" stroke="#000000" stroke-width="0.5" stroke-miterlimit="10" cx="471.716" cy="379.199" r="1.695"/>
<circle fill="#FFFFFF" stroke="#000000" stroke-width="0.5" stroke-miterlimit="10" cx="466.245" cy="379.753" r="1.695"/>
<circle fill="#FFFFFF" stroke="#000000" stroke-width="0.5" stroke-miterlimit="10" cx="461.457" cy="379.172" r="1.694"/>
<circle fill="#FFFFFF" stroke="#000000" stroke-width="0.5" stroke-miterlimit="10" cx="452.692" cy="338.467" r="1.152"/>
<circle fill="#FFFFFF" stroke="#000000" stroke-width="0.5" stroke-miterlimit="10" cx="455.453" cy="336.358" r="1.152"/>
<circle fill="#FFFFFF" stroke="#000000" stroke-width="0.5" stroke-miterlimit="10" cx="458.533" cy="334.974" r="1.152"/>
<path fill="#FFFFFF" stroke="#000000" stroke-width="0.5" stroke-miterlimit="10" d="M462.753,333.374
	c0.315,0.554,0.12,1.258-0.433,1.572c-0.555,0.312-1.256,0.117-1.571-0.433c-0.313-0.555-0.121-1.257,0.433-1.573
	C461.734,332.628,462.438,332.821,462.753,333.374z"/>
<circle fill="#FFFFFF" stroke="#000000" stroke-width="0.5" stroke-miterlimit="10" cx="487.925" cy="368.354" r="1.152"/>
<circle fill="#FFFFFF" stroke="#000000" stroke-width="0.5" stroke-miterlimit="10" cx="486.124" cy="371.325" r="1.152"/>
<path fill="#FFFFFF" stroke="#000000" stroke-width="0.5" stroke-miterlimit="10" d="M483.034,374.632
	c-0.493-0.401-0.571-1.125-0.17-1.62c0.4-0.495,1.125-0.571,1.617-0.17c0.497,0.399,0.571,1.127,0.173,1.62
	C484.253,374.954,483.526,375.031,483.034,374.632z"/>
<circle fill="#FFFFFF" stroke="#000000" stroke-width="0.5" stroke-miterlimit="10" cx="481.139" cy="375.869" r="1.152"/>
</svg>
